HIERARCHY
ROOT hip
{
  OFFSET -96.3902 82.8443 104.952
  CHANNELS 6 Xposition Yposition Zposition Zrotation Xrotation Yrotation
  JOINT abdomen
  {
    OFFSET 0 20.6881 -0.73152
    CHANNELS 3 Zrotation Xrotation Yrotation
    JOINT chest
    {
      OFFSET 0 11.7043 -0.48768
      CHANNELS 3 Zrotation Xrotation Yrotation
      JOINT neck
      {
        OFFSET 0 22.1894 -2.19456
        CHANNELS 3 Zrotation Xrotation Yrotation
        JOINT head
        {
          OFFSET -0.24384 7.07133 1.2192
          CHANNELS 3 Zrotation Xrotation Yrotation
          JOINT leftEye
          {
            OFFSET 4.14528 8.04674 8.04672
            CHANNELS 3 Zrotation Xrotation Yrotation
            End Site
            {
              OFFSET 1 0 0
            }
          }
          JOINT rightEye
          {
            OFFSET -3.6576 8.04674 8.04672
            CHANNELS 3 Zrotation Xrotation Yrotation
            End Site
            {
              OFFSET 1 0 0
            }
          }
        }
      }
      JOINT rCollar
      {
        OFFSET -2.68224 19.2634 -4.8768
        CHANNELS 3 Zrotation Xrotation Yrotation
        JOINT rShldr
        {
          OFFSET -8.77824 -1.95073 1.46304
          CHANNELS 3 Zrotation Xrotation Yrotation
          JOINT rForeArm
          {
            OFFSET -28.1742 -1.7115 0.48768
            CHANNELS 3 Zrotation Xrotation Yrotation
            JOINT rHand
            {
              OFFSET -22.5879 0.773209 7.07136
              CHANNELS 3 Zrotation Xrotation Yrotation
              JOINT rThumb1
              {
                OFFSET -1.2192 -0.487915 3.41376
                CHANNELS 3 Zrotation Xrotation Yrotation
                JOINT rThumb2
                {
                  OFFSET -3.37035 -0.52449 3.41376
                  CHANNELS 3 Zrotation Xrotation Yrotation
                  End Site
                  {
                    OFFSET -1.78271 -1.18214 1.43049
                  }
                }
              }
              JOINT rIndex1
              {
                OFFSET -7.75947 0.938293 5.60832
                CHANNELS 3 Zrotation Xrotation Yrotation
                JOINT rIndex2
                {
                  OFFSET -2.54057 -0.884171 1.56538
                  CHANNELS 3 Zrotation Xrotation Yrotation
                  End Site
                  {
                    OFFSET -1.62519 -0.234802 1.16502
                  }
                }
              }
              JOINT rMid1
              {
                OFFSET -8.24714 1.18213 3.41376
                CHANNELS 3 Zrotation Xrotation Yrotation
                JOINT rMid2
                {
                  OFFSET -3.10165 -0.590103 1.0647
                  CHANNELS 3 Zrotation Xrotation Yrotation
                  End Site
                  {
                    OFFSET -2.48547 -0.328903 0.83742
                  }
                }
              }
              JOINT rRing1
              {
                OFFSET -8.82822 0.546677 1.51678
                CHANNELS 3 Zrotation Xrotation Yrotation
                JOINT rRing2
                {
                  OFFSET -2.60934 -0.819778 -0.0198488
                  CHANNELS 3 Zrotation Xrotation Yrotation
                  End Site
                  {
                    OFFSET -2.33842 -0.294052 0.168128
                  }
                }
              }
              JOINT rPinky1
              {
                OFFSET -8.27202 -0.0477905 -0.4584
                CHANNELS 3 Zrotation Xrotation Yrotation
                JOINT rPinky2
                {
                  OFFSET -1.82734 -0.647385 -0.700984
                  CHANNELS 3 Zrotation Xrotation Yrotation
                  End Site
                  {
                    OFFSET -1.69225 -0.51767 -0.607171
                  }
                }
              }
            }
          }
        }
      }
      JOINT lCollar
      {
        OFFSET 2.68224 19.2634 -4.8768
        CHANNELS 3 Zrotation Xrotation Yrotation
        JOINT lShldr
        {
          OFFSET 8.77824 -1.95073 1.46304
          CHANNELS 3 Zrotation Xrotation Yrotation
          JOINT lForeArm
          {
            OFFSET 28.1742 -1.7115 0.48768
            CHANNELS 3 Zrotation Xrotation Yrotation
            JOINT lHand
            {
              OFFSET 22.5879 0.773209 7.07136
              CHANNELS 3 Zrotation Xrotation Yrotation
              JOINT lThumb1
              {
                OFFSET 1.2192 -0.487915 3.41376
                CHANNELS 3 Zrotation Xrotation Yrotation
                JOINT lThumb2
                {
                  OFFSET 3.37035 -0.52449 3.41376
                  CHANNELS 3 Zrotation Xrotation Yrotation
                  End Site
                  {
                    OFFSET 1.78271 -1.18214 1.43049
                  }
                }
              }
              JOINT lIndex1
              {
                OFFSET 7.75947 0.938293 5.60832
                CHANNELS 3 Zrotation Xrotation Yrotation
                JOINT lIndex2
                {
                  OFFSET 2.54057 -0.884171 1.56538
                  CHANNELS 3 Zrotation Xrotation Yrotation
                  End Site
                  {
                    OFFSET 1.62519 -0.234802 1.16502
                  }
                }
              }
              JOINT lMid1
              {
                OFFSET 8.24714 1.18213 3.41376
                CHANNELS 3 Zrotation Xrotation Yrotation
                JOINT lMid2
                {
                  OFFSET 3.10165 -0.590103 1.0647
                  CHANNELS 3 Zrotation Xrotation Yrotation
                  End Site
                  {
                    OFFSET 2.48547 -0.328903 0.83742
                  }
                }
              }
              JOINT lRing1
              {
                OFFSET 8.82822 0.546677 1.51678
                CHANNELS 3 Zrotation Xrotation Yrotation
                JOINT lRing2
                {
                  OFFSET 2.60934 -0.819778 -0.0198488
                  CHANNELS 3 Zrotation Xrotation Yrotation
                  End Site
                  {
                    OFFSET 2.33842 -0.294052 0.168128
                  }
                }
              }
              JOINT lPinky1
              {
                OFFSET 8.27202 -0.0477905 -0.4584
                CHANNELS 3 Zrotation Xrotation Yrotation
                JOINT lPinky2
                {
                  OFFSET 1.82734 -0.647385 -0.700984
                  CHANNELS 3 Zrotation Xrotation Yrotation
                  End Site
                  {
                    OFFSET 1.69225 -0.51767 -0.607171
                  }
                }
              }
            }
          }
        }
      }
    }
  }
  JOINT rButtock
  {
    OFFSET -8.77824 4.35084 1.2192
    CHANNELS 3 Zrotation Xrotation Yrotation
    JOINT rThigh
    {
      OFFSET 0 -1.70687 -2.19456
      CHANNELS 3 Zrotation Xrotation Yrotation
      JOINT rShin
      {
        OFFSET 0 -36.8199 0.73152
        CHANNELS 3 Zrotation Xrotation Yrotation
        JOINT rFoot
        {
          OFFSET 0.73152 -45.1104 -5.12064
          CHANNELS 3 Zrotation Xrotation Yrotation
          End Site
          {
            OFFSET -1.1221 -3.69964 12.103
          }
        }
      }
    }
  }
  JOINT lButtock
  {
    OFFSET 8.77824 4.35084 1.2192
    CHANNELS 3 Zrotation Xrotation Yrotation
    JOINT lThigh
    {
      OFFSET 0 -1.70687 -2.19456
      CHANNELS 3 Zrotation Xrotation Yrotation
      JOINT lShin
      {
        OFFSET 0 -36.8199 0.73152
        CHANNELS 3 Zrotation Xrotation Yrotation
        JOINT lFoot
        {
          OFFSET -0.73152 -45.1104 -5.12064
          CHANNELS 3 Zrotation Xrotation Yrotation
          End Site
          {
            OFFSET 1.1221 -3.69964 12.103
          }
        }
      }
    }
  }
}
MOTION
Frames:	4
Frame Time:	0.00833333
4.41326 84.1438 8.90176 -3.5676 1.54227 -48.4123 4.99064 14.0042 2.40276 0.740509 -5.33387 0.927614 -10.716 -4.95448 -4.56901 13.322 6.56738 -6.19724 -0 0 0 -0 0 0 -1.0527e-013 -8.82584e-014 4.6451e-013 81.0333 11.0185 -2.39279 -15.0809 -7.86055 27.7553 -0.108097 9.33552 1.32387 -4.1506e-010 1.20511e-009 3.64428e-010 -7.14052e-010 2.08292e-009 6.33865e-010 -4.15059e-010 1.20511e-009 3.64422e-010 7.73091 5.47488 0.417314 -4.15058e-010 1.20511e-009 3.64425e-010 2.90554 0.965183 0.102902 -4.15053e-010 1.20511e-009 3.64424e-010 10.2786 0.731801 0.0259123 -4.15055e-010 1.20511e-009 3.64431e-010 2.22167 -0.733487 -0.20892 -1.05398e-013 -8.82631e-014 4.64162e-013 -80.295 17.7164 3.3052 15.493 -8.22455 -28.6095 0.0812501 8.1049 -1.14681 -1.54394e-010 2.17094e-009 9.82747e-010 -2.58752e-010 3.75842e-009 1.7002e-009 -1.54392e-010 2.17095e-009 9.82772e-010 -7.73091 5.47488 -0.417314 -1.54391e-010 2.17095e-009 9.82744e-010 -2.90554 0.965183 -0.102902 -1.54399e-010 2.17095e-009 9.82744e-010 -10.2786 0.731801 -0.0259123 -1.5439e-010 2.17095e-009 9.82737e-010 -2.22167 -0.733487 0.20892 -2.03217e-016 0 -3.88251e-019 8.76193 -13.4988 0.105553 -0.103498 26.8528 0.308295 0.256145 -8.91178 4.09502 2.03217e-016 0 3.88251e-019 4.24173 -25.721 3.15539 1.01625 58.6847 -1.3291 0.213545 2.56172 -5.0752 
3.87258 84.1175 9.40983 -3.61992 1.56142 -48.3848 5.02425 14.0302 2.48277 0.651816 -5.36658 0.942237 -10.7202 -4.91996 -4.57397 13.3563 6.57403 -6.21439 -0 0 0 -0 0 0 -8.96018e-014 -8.26676e-014 4.64815e-013 80.8957 11.4809 -2.26639 -15.2758 -8.03157 28.1576 -0.100877 9.01173 1.27721 -2.57822e-010 7.03277e-010 4.41716e-010 -4.41194e-010 1.21371e-009 7.65171e-010 -2.57822e-010 7.03282e-010 4.41711e-010 7.73091 5.47488 0.417314 -2.57821e-010 7.03284e-010 4.41714e-010 2.90554 0.965183 0.102902 -2.57816e-010 7.03282e-010 4.41715e-010 10.2786 0.731801 0.0259123 -2.5782e-010 7.0328e-010 4.41722e-010 2.22167 -0.733487 -0.20892 -8.96981e-014 -8.26691e-014 4.64503e-013 -80.2638 17.9099 3.36075 15.5275 -8.25546 -28.6814 0.0802931 8.05671 -1.1399 -1.77817e-010 1.6494e-009 5.20802e-010 -3.02725e-010 2.85434e-009 9.01175e-010 -1.77815e-010 1.64941e-009 5.20827e-010 -7.73091 5.47488 -0.417314 -1.77815e-010 1.6494e-009 5.20799e-010 -2.90554 0.965183 -0.102902 -1.77822e-010 1.6494e-009 5.208e-010 -10.2786 0.731801 -0.0259123 -1.77814e-010 1.64941e-009 5.20793e-010 -2.22167 -0.733487 0.20892 -2.03217e-016 0 -3.88251e-019 8.83855 -13.0294 0.0920853 -0.103145 26.9776 0.335351 0.260935 -9.40963 3.97443 2.03217e-016 0 3.88251e-019 4.20757 -26.5316 2.89044 0.974528 57.9668 -1.28785 0.215584 1.7643 -4.23933 
3.31955 84.0475 9.8901 -3.64078 1.55952 -48.3469 5.01445 14.0415 2.53708 0.594784 -5.39692 0.94896 -10.7409 -4.87817 -4.57636 13.3658 6.53622 -6.21352 -0 0 0 -0 0 0 -6.3106e-014 -6.56876e-014 4.81357e-013 80.7173 11.9369 -2.12934 -15.4691 -8.20383 28.5579 -0.0949336 8.74298 1.23851 -2.0046e-010 2.11608e-010 5.70312e-010 -3.40403e-010 3.62349e-010 9.8628e-010 -2.00459e-010 2.11611e-010 5.7031e-010 7.73091 5.47488 0.417314 -2.00459e-010 2.11616e-010 5.70312e-010 2.90554 0.965183 0.102902 -2.00454e-010 2.11612e-010 5.70316e-010 10.2786 0.731801 0.0259123 -2.00461e-010 2.11612e-010 5.70324e-010 2.22167 -0.733487 -0.20892 -6.31482e-014 -6.56846e-014 4.81109e-013 -80.2536 18.1451 3.41753 15.5592 -8.28391 -28.7475 0.0797483 8.02944 -1.13599 -3.28252e-010 1.20009e-009 3.34194e-012 -5.66521e-010 2.07701e-009 7.36e-012 -3.28251e-010 1.2001e-009 3.36142e-012 -7.73091 5.47488 -0.417314 -3.28252e-010 1.2001e-009 3.33861e-012 -2.90554 0.965183 -0.102902 -3.28258e-010 1.2001e-009 3.34005e-012 -10.2786 0.731801 -0.0259123 -3.2825e-010 1.2001e-009 3.33261e-012 -2.22167 -0.733487 0.20892 -2.03217e-016 0 -3.88251e-019 8.8715 -12.5759 0.0747009 -0.103378 27.1188 0.362927 0.263603 -9.9193 3.8433 2.03217e-016 0 3.88251e-019 4.10196 -27.2778 2.54221 0.924795 57.0748 -1.2406 0.224266 0.968234 -3.58467 
2.76661 83.9574 10.3704 -3.64375 1.55421 -48.3263 4.98384 14.0374 2.60156 0.546453 -5.41545 0.957874 -10.7657 -4.83613 -4.57871 13.3643 6.4748 -6.20698 -0 0 0 -0 0 0 -3.34673e-014 -4.52846e-014 4.6003e-013 80.5135 12.3988 -1.97211 -15.6475 -8.36457 28.9303 -0.0893671 8.49039 1.20217 -5.87519e-011 -3.66131e-010 6.05961e-010 -9.44705e-011 -6.37876e-010 1.04618e-009 -5.87514e-011 -3.66131e-010 6.0596e-010 7.73091 5.47488 0.417314 -5.87515e-011 -3.66124e-010 6.05963e-010 2.90554 0.965183 0.102902 -5.87477e-011 -3.6613e-010 6.05969e-010 10.2786 0.731801 0.0259123 -5.87567e-011 -3.66128e-010 6.05977e-010 2.22167 -0.733487 -0.20892 -3.34558e-014 -4.52775e-014 4.59846e-013 -80.2533 18.3829 3.4733 15.5916 -8.31312 -28.8151 0.0792819 8.00648 -1.13269 -3.73318e-010 6.09287e-010 -5.07775e-010 -6.47981e-010 1.05374e-009 -8.76348e-010 -3.73318e-010 6.09291e-010 -5.07761e-010 -7.73091 5.47488 -0.417314 -3.73321e-010 6.09293e-010 -5.07779e-010 -2.90554 0.965183 -0.102902 -3.73325e-010 6.0929e-010 -5.07776e-010 -10.2786 0.731801 -0.0259123 -3.73318e-010 6.09291e-010 -5.07785e-010 -2.22167 -0.733487 0.20892 -2.03217e-016 0 -3.88251e-019 8.89121 -12.1027 0.0732467 -0.103529 27.2054 0.388747 0.260526 -10.4102 3.69849 2.03217e-016 0 3.88251e-019 3.96754 -27.9332 2.16304 0.867476 55.9813 -1.1862 0.241914 0.205031 -3.02561 
